<svg width="52" height="52" viewBox="0 0 52 52" fill="none" xmlns="http://www.w3.org/2000/svg">
<path d="M23.001 21.7867V32C23.7255 31.8375 27.5551 31.2696 35.1371 28.4673C38.1824 27.3422 41.7006 25.2517 43.1437 24.3705C44.0204 23.8349 44.2676 25.4618 43.3836 28.5658C42.9633 30.0413 43.5057 30.5689 43.864 30.7759C44.2228 30.9828 44.6922 30.9892 45.0442 30.7706C45.4233 30.5351 45.6278 30.081 45.6763 29.6327C45.7248 29.1844 45.6387 28.7335 45.5558 28.2906C45.4035 27.4792 44.8147 25.6428 45.6101 23.5898C45.9929 22.6023 46.686 21.801 47.341 20.9743C48.5494 19.4496 49.3938 18.5594 50.2262 16.7462C50.815 15.4644 51.1096 13.2818 50.9626 12C50.9626 12 45.125 16.6838 38.0061 19.0442C32.3349 20.9246 23 21.7862 23 21.7862L23.001 21.7867Z" fill="#D5DBDD"/>
<path d="M35.4969 30.3914C34.005 30.9336 32.652 31.3934 31.4348 31.7833C31.2619 32.865 31.0268 33.8336 30.7285 34.6891C30.0332 36.7258 29.0793 38.2094 27.8663 39.1395C26.6679 40.0695 25.2998 40.5345 23.7613 40.5345H21.4539C21.1577 40.5345 20.9289 40.461 20.7659 40.3129C20.6181 40.1654 20.5444 39.9663 20.5444 39.715V10.465H21.8311C23.3398 10.465 24.7006 10.8117 25.9136 11.5055C27.1417 12.1848 28.1918 13.2029 29.0647 14.5614C29.8337 15.7375 30.4412 17.1638 30.8878 18.8382C33.049 18.4514 35.2723 17.965 37.0798 17.376C37.1488 17.3535 37.2172 17.3306 37.2856 17.3077C36.6112 16.2734 35.824 15.3429 34.9228 14.5171C33.2956 13.0262 31.3726 11.9043 29.1535 11.1516C26.9338 10.3837 24.4859 10 21.8086 10H10.1372C10.0782 10 10.0265 10.0146 9.98209 10.0443C9.93768 10.0589 9.91574 10.0886 9.91574 10.1329C9.91574 10.2513 9.98992 10.3175 10.1378 10.3321L11.8685 10.6198C12.1495 10.6787 12.3564 10.7601 12.4896 10.8633C12.6228 10.9665 12.6891 11.1219 12.6891 11.3283V23.0827C9.30663 23.6238 5.72351 24.5226 2.79966 25.3311C2.26003 25.4802 1.85883 25.9306 1.76898 26.4821L1.01986 31.0618C0.825008 32.254 2.10227 33.147 3.16848 32.5762C4.22215 32.0122 5.33328 31.4382 5.96173 31.1755C8.12131 30.272 10.4146 29.4552 12.6886 29.2753V39.7155C12.6886 39.9073 12.6223 40.0549 12.4891 40.1586C12.3705 40.2472 12.1563 40.3207 11.8455 40.3796L10.1811 40.6455C10.0035 40.6752 9.9147 40.7414 9.9147 40.8452C9.9147 40.8895 9.92932 40.9265 9.9591 40.9557C10.0035 40.9854 10.0625 41 10.1367 41H23.7608C27.0597 41 29.9219 40.4683 32.3479 39.4053C34.7886 38.3429 36.6749 36.7998 38.006 34.7777C39.2039 32.9776 39.8684 30.8382 40 28.3599C38.5221 29.1278 36.9586 29.8597 35.4964 30.3914H35.4969Z" fill="#D5DBDD"/>
</svg>
